<?xml version="1.0" encoding="UTF-8" standalone="no"?>
<!DOCTYPE svg PUBLIC "-//W3C//DTD SVG 1.1//EN" "http://www.w3.org/Graphics/SVG/1.1/DTD/svg11.dtd">
<svg width="100%" height="100%" viewBox="0 0 511 511" version="1.1" xmlns="http://www.w3.org/2000/svg" xmlns:xlink="http://www.w3.org/1999/xlink" xml:space="preserve" xmlns:serif="http://www.serif.com/" style="fill-rule:evenodd;clip-rule:evenodd;stroke-linejoin:round;stroke-miterlimit:1.41421;">
    <g transform="matrix(1,0,0,1,-302.774,-836.078)">
        <g transform="matrix(0.86984,0,0,0.903636,57.3536,97.0159)">
            <rect x="282.145" y="817.876" width="589.763" height="565.493" style="fill:rgb(0,110,177);"/>
        </g>
        <path d="M650.686,1233.5C649.827,1235.08 649.882,1237 650.83,1238.53C655.393,1245.88 668.959,1267.73 675.466,1278.21C677.457,1281.41 681.618,1282.49 684.913,1280.65C698.24,1273.19 730.322,1255.25 740.206,1249.72C742.154,1248.63 743.878,1247.18 745.284,1245.45C748.27,1241.77 753.648,1235.15 756.446,1231.7C756.85,1231.2 756.98,1230.54 756.793,1229.92C756.605,1229.31 756.125,1228.83 755.513,1228.64C748.834,1226.61 731.821,1221.42 726.026,1219.65C724.74,1219.26 723.592,1218.51 722.714,1217.5C712.399,1205.56 645.894,1128.57 633.103,1113.76C632.59,1113.16 631.833,1112.84 631.049,1112.87C630.264,1112.91 629.54,1113.3 629.083,1113.94C626.087,1118.13 620.318,1126.18 617.619,1129.95C616.762,1131.15 616.832,1132.78 617.789,1133.9C625.43,1142.83 657.765,1180.63 667.942,1192.52C669.796,1194.69 670.121,1197.78 668.757,1200.28C664.266,1208.54 654.344,1226.78 650.686,1233.5Z" style="fill:white;"/>
        <path d="M518.899,1079.08C511.736,1079.08 467.062,1079.08 467.062,1079.08C467.062,1079.08 457.445,1078.64 457.254,1088.25C457.063,1097.87 457.127,1138 457.127,1138C457.127,1138 457.445,1147.17 467.19,1147.1C475.61,1147.05 514.896,1147.04 525.416,1147.04C526.851,1147.04 528.015,1148.2 528.018,1149.64C528.031,1157.41 528.069,1180.23 528.076,1184.36C528.077,1184.78 527.965,1185.19 527.752,1185.55C525.61,1189.21 513.534,1209.84 511.396,1213.49C511.184,1213.85 511.072,1214.26 511.072,1214.68C511.072,1216.73 511.072,1223.18 511.072,1226.71C511.072,1228.02 510.015,1229.07 508.711,1229.07C489.108,1229.08 354.077,1229.14 354.077,1229.14C354.077,1229.14 346.115,1229.14 342.995,1219.9C340.039,1211.15 342.739,1106.07 343.033,1094.99C343.049,1094.39 343.295,1093.81 343.723,1093.38C348.567,1088.53 378.406,1058.64 383.348,1053.69C383.791,1053.25 384.393,1053 385.021,1053C397.21,1053.01 518.899,1053.12 518.899,1053.12C526.061,1053.12 530.626,1058.83 530.626,1065.99C530.626,1073.16 526.061,1079.08 518.899,1079.08Z" style="fill:white;"/>
        <g transform="matrix(1,0,0,1,302.774,836.078)">
            <path d="M299.152,481.322C278.347,481.322 105.103,481.642 105.103,481.642C84.297,481.642 67.406,464.752 67.406,443.942C67.406,423.132 84.297,406.242 105.103,406.242L299.152,405.932C319.958,405.932 336.849,422.822 336.849,443.622C336.849,464.432 319.958,481.322 299.152,481.322ZM295.52,457.122C288.013,457.122 107.4,457.452 107.4,457.452C99.894,457.452 93.8,451.352 93.8,443.852C93.8,436.342 99.894,430.252 107.4,430.252L295.52,429.922C303.026,429.922 309.12,436.012 309.12,443.522C309.12,451.032 303.026,457.122 295.52,457.122Z" style="fill:white;"/>
        </g>
        <path d="M553.032,1061.22C551.723,1059.36 551.037,1057.17 551.037,1054.72C551.037,1048.39 556.175,1043.26 562.504,1043.26C565.884,1043.26 568.925,1044.72 571.024,1047.05C571.024,1047.05 588.507,1068.15 593.016,1073.59C593.648,1074.36 593.737,1075.43 593.24,1076.29C591.286,1079.65 586.354,1088.15 583.742,1092.64C583.356,1093.31 582.671,1093.74 581.906,1093.81C581.141,1093.88 580.391,1093.57 579.895,1092.98C573.162,1085.02 553.032,1061.22 553.032,1061.22Z" style="fill:white;"/>
        <g transform="matrix(1,0,0,1,302.774,836.078)">
            <path d="M217.119,381.352C220.01,376.472 298.387,242.822 298.387,242.822L358.076,178.822C355.006,173.812 353.235,167.922 353.235,161.618C353.235,143.415 368.014,128.637 386.217,128.637C404.42,128.637 419.198,143.415 419.198,161.618C419.198,179.822 404.42,194.602 386.217,194.602C382.487,194.602 378.902,193.982 375.558,192.832C373.966,192.292 234.773,391.792 234.773,391.792C231.882,396.682 225.581,398.312 220.709,395.432C215.837,392.542 214.229,386.242 217.119,381.352ZM386.321,147.464C394.004,147.464 400.242,153.702 400.242,161.385C400.242,169.069 394.004,175.307 386.321,175.307C378.637,175.307 372.399,169.069 372.399,161.385C372.399,153.702 378.637,147.464 386.321,147.464Z" style="fill:white;"/>
        </g>
    </g>
</svg>
